HIERARCHY
ROOT Run
{
	OFFSET 0.000000 0.000000 0.000000
	CHANNELS 6 Xposition Yposition Zposition Xrotation Yrotation Zrotation
	JOINT BR_Root
	{
		OFFSET -0.565402 156.632278 -36.388222
		CHANNELS 3 Xrotation Yrotation Zrotation
		JOINT Hip
		{
			OFFSET -0.000084 7.563660 -0.000835
			CHANNELS 3 Xrotation Yrotation Zrotation
			JOINT B_L_Leg_1
			{
				OFFSET 16.788666 -14.100632 -23.470940
				CHANNELS 3 Xrotation Yrotation Zrotation
				JOINT B_L_Leg_2
				{
					OFFSET 8.800882 -36.089691 7.528439
					CHANNELS 3 Xrotation Yrotation Zrotation
					JOINT B_L_Leg_3
					{
						OFFSET -0.282743 -17.277481 -46.531326
						CHANNELS 3 Xrotation Yrotation Zrotation
						JOINT B_L_Leg_4
						{
							OFFSET -8.517700 -30.912560 19.793472
							CHANNELS 3 Xrotation Yrotation Zrotation
							JOINT B_L_Leg_5
							{
								OFFSET -2.337047 -14.127377 -0.545128
								CHANNELS 3 Xrotation Yrotation Zrotation
								JOINT B_L_Leg______END
								{
									OFFSET -1.566834 -7.055946 -3.246277
									CHANNELS 3 Xrotation Yrotation Zrotation
									End Site
									{
										OFFSET 1.612966 5.378593 5.590057
									}
								}
							}
						}
					}
				}
			}
			JOINT Tail
			{
				OFFSET 0.562161 6.591736 -49.110981
				CHANNELS 3 Xrotation Yrotation Zrotation
				JOINT Tail_1
				{
					OFFSET -0.000276 0.343445 -4.217140
					CHANNELS 3 Xrotation Yrotation Zrotation
					JOINT Tail_2
					{
						OFFSET -0.000278 -0.289688 -4.347839
						CHANNELS 3 Xrotation Yrotation Zrotation
						JOINT Tail_3
						{
							OFFSET -0.000318 -0.526108 -5.007439
							CHANNELS 3 Xrotation Yrotation Zrotation
							JOINT Tail_4
							{
								OFFSET 0.004723 -1.448685 -8.492088
								CHANNELS 3 Xrotation Yrotation Zrotation
								JOINT Tail_5
								{
									OFFSET 0.030294 -2.968933 -10.165901
									CHANNELS 3 Xrotation Yrotation Zrotation
									JOINT Tail_6
									{
										OFFSET 0.126199 -5.885651 -12.183357
										CHANNELS 3 Xrotation Yrotation Zrotation
										JOINT Tail_7
										{
											OFFSET 0.344569 -8.173065 -15.365067
											CHANNELS 3 Xrotation Yrotation Zrotation
											JOINT Tail_8
											{
												OFFSET 0.238568 -9.296631 -19.643692
												CHANNELS 3 Xrotation Yrotation Zrotation
												JOINT Tail_9
												{
													OFFSET -0.174771 -8.771759 -17.509323
													CHANNELS 3 Xrotation Yrotation Zrotation
													JOINT Tail___CAP
													{
														OFFSET -0.347679 -10.685875 -19.414474
														CHANNELS 3 Xrotation Yrotation Zrotation
														End Site
														{
															OFFSET 0.342867 12.698341 18.162201
														}
													}
												}
											}
										}
									}
								}
							}
						}
					}
				}
			}
			JOINT B_R_Leg_1
			{
				OFFSET -16.791372 -14.101044 -23.468754
				CHANNELS 3 Xrotation Yrotation Zrotation
				JOINT B_R_Leg_2
				{
					OFFSET -1.062775 -37.887177 -0.163948
					CHANNELS 3 Xrotation Yrotation Zrotation
					JOINT B_R_Leg_3
					{
						OFFSET -11.661299 -7.519707 -47.657379
						CHANNELS 3 Xrotation Yrotation Zrotation
						JOINT B_R_Leg_4
						{
							OFFSET 12.715282 -35.470070 -0.333328
							CHANNELS 3 Xrotation Yrotation Zrotation
							JOINT B_R_Leg_5
							{
								OFFSET -0.001347 -11.010674 -9.170921
								CHANNELS 3 Xrotation Yrotation Zrotation
								JOINT B_R_Leg______END
								{
									OFFSET -0.000500 -1.614452 -7.757133
									CHANNELS 3 Xrotation Yrotation Zrotation
									End Site
									{
										OFFSET -0.000252 1.267365 -7.821350
									}
								}
							}
						}
					}
				}
			}
		}
		JOINT Spine_1
		{
			OFFSET -0.000084 7.563660 -0.000835
			CHANNELS 3 Xrotation Yrotation Zrotation
			JOINT Spine_2
			{
				OFFSET 0.484991 -11.459137 17.740044
				CHANNELS 3 Xrotation Yrotation Zrotation
				JOINT Spine_3
				{
					OFFSET 0.119672 -8.665451 19.784290
					CHANNELS 3 Xrotation Yrotation Zrotation
					JOINT Spine_4
					{
						OFFSET -0.042671 -4.629013 21.583904
						CHANNELS 3 Xrotation Yrotation Zrotation
						JOINT Spine_5
						{
							OFFSET 0.015242 -3.954651 20.008003
							CHANNELS 3 Xrotation Yrotation Zrotation
							JOINT F_L_Leg_1
							{
								OFFSET 7.500905 -15.415092 3.608891
								CHANNELS 3 Xrotation Yrotation Zrotation
								JOINT F_L_Leg_2
								{
									OFFSET 7.952721 -15.443771 14.055702
									CHANNELS 3 Xrotation Yrotation Zrotation
									JOINT F_L_Leg_3
									{
										OFFSET 2.982862 -21.654259 -25.469501
										CHANNELS 3 Xrotation Yrotation Zrotation
										JOINT F_L_Leg_4
										{
											OFFSET -2.198294 -37.472958 17.299114
											CHANNELS 3 Xrotation Yrotation Zrotation
											JOINT F_L_Leg_5
											{
												OFFSET 0.631611 -8.980099 -29.999575
												CHANNELS 3 Xrotation Yrotation Zrotation
												JOINT F_L_Leg_6
												{
													OFFSET 0.000645 3.026524 -13.176040
													CHANNELS 3 Xrotation Yrotation Zrotation
													JOINT F_L_Leg______END
													{
														OFFSET 0.000195 3.444393 -7.960698
														CHANNELS 3 Xrotation Yrotation Zrotation
														End Site
														{
															OFFSET 0.000355 -6.550392 5.685852
														}
													}
												}
											}
										}
									}
								}
							}
							JOINT Neck_1
							{
								OFFSET -0.029568 -16.516441 17.194077
								CHANNELS 3 Xrotation Yrotation Zrotation
								JOINT Neck_2
								{
									OFFSET 0.008243 13.404778 9.832691
									CHANNELS 3 Xrotation Yrotation Zrotation
									JOINT Neck_3
									{
										OFFSET -0.012131 9.911880 8.406898
										CHANNELS 3 Xrotation Yrotation Zrotation
										JOINT Neck_4
										{
											OFFSET -0.020761 11.680817 9.172775
											CHANNELS 3 Xrotation Yrotation Zrotation
											JOINT Neck_5
											{
												OFFSET -0.060549 9.180862 8.437965
												CHANNELS 3 Xrotation Yrotation Zrotation
												JOINT Neck_6
												{
													OFFSET -0.094151 7.724655 9.449677
													CHANNELS 3 Xrotation Yrotation Zrotation
													JOINT Head
													{
														OFFSET -0.346872 3.698318 13.458054
														CHANNELS 3 Xrotation Yrotation Zrotation
														JOINT Ear_L_1
														{
															OFFSET 8.553695 6.167099 -0.876122
															CHANNELS 3 Xrotation Yrotation Zrotation
															JOINT Ear_L_2
															{
																OFFSET 3.084052 5.225952 1.150345
																CHANNELS 3 Xrotation Yrotation Zrotation
																JOINT Ear_L_______END
																{
																	OFFSET 4.835356 5.910660 3.189064
																	CHANNELS 3 Xrotation Yrotation Zrotation
																	End Site
																	{
																		OFFSET 4.861334 6.574783 -1.275253
																	}
																}
															}
														}
														JOINT Upper_Lip
														{
															OFFSET 1.784006 -28.224823 32.847412
															CHANNELS 3 Xrotation Yrotation Zrotation
															JOINT Upper_Lip________END
															{
																OFFSET 0.321176 -6.463730 6.877899
																CHANNELS 3 Xrotation Yrotation Zrotation
																End Site
																{
																	OFFSET -0.107290 9.320801 -1.516571
																}
															}
														}
														JOINT Jaw
														{
															OFFSET 0.112281 -12.885422 2.696732
															CHANNELS 3 Xrotation Yrotation Zrotation
															JOINT Lower_Lip
															{
																OFFSET 1.487992 -22.718475 25.008118
																CHANNELS 3 Xrotation Yrotation Zrotation
																JOINT Lower_Lip_________END
																{
																	OFFSET 0.271332 -4.924591 5.868958
																	CHANNELS 3 Xrotation Yrotation Zrotation
																	End Site
																	{
																		OFFSET -0.087100 7.566132 -1.231247
																	}
																}
															}
														}
														JOINT Ear_R_1
														{
															OFFSET -8.653640 6.087631 -0.147377
															CHANNELS 3 Xrotation Yrotation Zrotation
															JOINT Ear_R_2
															{
																OFFSET -3.023924 5.197754 1.408188
																CHANNELS 3 Xrotation Yrotation Zrotation
																JOINT Ear_R_______END
																{
																	OFFSET -4.602939 5.867706 3.587845
																	CHANNELS 3 Xrotation Yrotation Zrotation
																	End Site
																	{
																		OFFSET 5.012339 -6.529144 0.858215
																	}
																}
															}
														}
													}
												}
											}
										}
									}
								}
							}
							JOINT F_R_Leg_1
							{
								OFFSET -7.590865 -15.365982 3.630100
								CHANNELS 3 Xrotation Yrotation Zrotation
								JOINT F_R_Leg_2
								{
									OFFSET -7.453348 -18.762703 9.577587
									CHANNELS 3 Xrotation Yrotation Zrotation
									JOINT F_R_Leg_3
									{
										OFFSET -2.981384 -13.013298 -30.793787
										CHANNELS 3 Xrotation Yrotation Zrotation
										JOINT F_R_Leg_4
										{
											OFFSET 0.670624 -41.303223 1.382643
											CHANNELS 3 Xrotation Yrotation Zrotation
											JOINT F_R_Leg_5
											{
												OFFSET 0.486504 -30.857708 -5.346281
												CHANNELS 3 Xrotation Yrotation Zrotation
												JOINT F_R_Leg_6
												{
													OFFSET 0.000172 -8.264988 10.698505
													CHANNELS 3 Xrotation Yrotation Zrotation
													JOINT F_R_Leg______END
													{
														OFFSET -0.000389 -7.819051 3.754843
														CHANNELS 3 Xrotation Yrotation Zrotation
														End Site
														{
															OFFSET -0.000795 -8.673893 0.000996
														}
													}
												}
											}
										}
									}
								}
							}
							JOINT Reins_Hold
							{
								OFFSET 0.182788 45.113251 -2.475628
								CHANNELS 3 Xrotation Yrotation Zrotation
								End Site
								{
									OFFSET 0.092162 23.965897 10.120377
								}
							}
						}
						JOINT LegStrap_L_01
						{
							OFFSET 29.351765 -8.522903 -10.437113
							CHANNELS 3 Xrotation Yrotation Zrotation
							JOINT LegStrap_L_02
							{
								OFFSET 1.413771 -2.510956 -0.710665
								CHANNELS 3 Xrotation Yrotation Zrotation
								JOINT LegStrap_L_03
								{
									OFFSET 1.538328 -6.543365 -2.574927
									CHANNELS 3 Xrotation Yrotation Zrotation
									JOINT LegStrap_L_04
									{
										OFFSET 2.685062 -4.026138 -1.543519
										CHANNELS 3 Xrotation Yrotation Zrotation
										JOINT LegStrap_L_05
										{
											OFFSET 3.167244 -4.005714 -2.690126
											CHANNELS 3 Xrotation Yrotation Zrotation
											JOINT LegStrap_L_06_Twist
											{
												OFFSET 5.863094 -3.569092 -3.768020
												CHANNELS 3 Xrotation Yrotation Zrotation
												End Site
												{
													OFFSET -1.954250 5.028900 5.674804
												}
											}
										}
									}
								}
							}
						}
						JOINT LegStrap_R_01
						{
							OFFSET -29.435831 -8.331299 -10.354439
							CHANNELS 3 Xrotation Yrotation Zrotation
							JOINT LegStrap_R_02
							{
								OFFSET -1.994991 -1.678284 -0.388961
								CHANNELS 3 Xrotation Yrotation Zrotation
								JOINT LegStrap_R_03
								{
									OFFSET -1.162546 -6.991417 -1.779894
									CHANNELS 3 Xrotation Yrotation Zrotation
									JOINT LegStrap_R_04
									{
										OFFSET -3.554699 -5.688148 -2.842836
										CHANNELS 3 Xrotation Yrotation Zrotation
										JOINT LegStrap_R_05
										{
											OFFSET -2.363403 -3.351738 -2.752917
											CHANNELS 3 Xrotation Yrotation Zrotation
											JOINT LegStrap_R_06_Twist
											{
												OFFSET -3.056847 -3.490768 -5.104632
												CHANNELS 3 Xrotation Yrotation Zrotation
												End Site
												{
													OFFSET 6.270851 -2.855392 -0.331900
												}
											}
										}
									}
								}
							}
						}
					}
				}
			}
		}
	}
}
MOTION
Frames: 4
Frame Time: 0.033333
0.000000 0.000000 0.000000 0.000007 -0.000000 -0.000000 -0.000019 0.000001 0.000000 0.000009 -0.000007 -0.000003 0.000008 0.000006 0.000000 -0.000008 0.000006 -0.000004 -0.000018 0.000021 0.000018 0.000018 -0.000015 -0.000000 -0.000010 0.000000 0.000002 0.000003 -0.000001 0.000001 -0.000269 0.000016 0.000008 0.000010 0.000000 0.000000 0.000273 0.000000 -0.000000 -0.000025 -0.000000 -0.000000 0.000007 0.000000 -0.000000 0.000083 0.000003 0.000007 -0.000171 -0.000001 -0.000002 0.000083 0.000001 0.000001 -0.000042 -0.000000 -0.000001 0.000026 -0.000001 0.000001 -0.000002 0.000000 0.000000 0.000013 -0.000002 0.000010 0.000007 -0.000004 0.000020 -0.000026 0.000005 -0.000008 -0.000055 0.000034 0.000012 0.000052 -0.000006 0.000138 -0.000002 0.000000 -0.000000 -0.000045 -0.000002 0.000001 0.000107 0.000000 -0.000001 -0.000075 0.000000 0.000000 0.000023 -0.000000 0.000000 -0.000004 0.000027 0.000003 -0.000005 -0.000003 -0.000009 -0.000023 -0.000024 0.000008 0.000004 0.000009 -0.000007 0.000023 -0.000007 0.000001 -0.000030 0.000005 -0.000008 0.000010 -0.000007 0.000003 0.000005 0.000000 -0.000000 -0.000015 -0.000026 -0.000003 0.000072 -0.000001 -0.000001 -0.000132 0.000002 -0.000001 0.000097 0.000001 -0.000001 -0.000028 -0.000001 0.000002 0.000062 0.000001 0.000003 -0.000057 0.000002 -0.000024 0.000077 -0.000016 0.000019 -0.000027 0.000013 -0.000006 -0.000001 -0.000001 -0.000002 -0.000005 -0.000004 0.000023 -0.000000 0.000000 -0.000000 -0.000052 -0.000005 0.000025 0.000049 0.000001 -0.000004 0.000002 0.000000 -0.000000 0.000081 -0.000007 0.000069 -0.000052 -0.000008 -0.000076 0.000001 -0.000000 -0.000001 -0.000061 -0.000051 -0.000006 -0.000015 0.000022 0.000011 0.000012 0.000002 -0.000003 0.000006 0.000001 -0.000002 0.000012 0.000009 0.000006 -0.000006 -0.000010 -0.000006 0.000001 -0.000000 -0.000000 -0.000004 -0.000000 0.000000 -0.000002 0.000000 -0.000000 -0.000001 -0.000000 0.000001 -0.000001 -0.000002 -0.000003 0.000002 0.000001 0.000000 0.000001 -0.000001 -0.000000 -0.000002 0.000001 -0.000001 -0.000000 -0.000000 0.000000 -0.000002 -0.000003 -0.000001 0.000004 0.000002 0.000001 -0.000000 -0.000003 -0.000003 -0.000001 -0.000003 -0.000003 0.000000 -0.000002 -0.000002 
0.000000 0.000000 0.000000 0.000007 -0.000000 -0.000000 -1.564205 -0.001100 -0.000154 3.081105 0.000021 -0.000202 -9.826497 -0.044982 -0.757836 0.011993 -0.531115 0.886692 2.606499 -0.431657 0.441122 4.727202 -0.766693 0.813518 -0.279025 0.044615 0.037599 -0.000012 0.000002 0.000001 1.307601 0.000014 -0.000078 -0.396304 -0.000005 0.000025 1.839914 0.000019 -0.000119 2.511553 0.003591 0.000043 3.031615 -0.002221 0.005919 0.551019 -0.018734 0.020446 -8.955509 -0.019780 -0.132799 -5.647755 -0.053772 -0.071238 2.339616 -0.087801 0.043770 -0.365830 -0.099891 0.025611 -0.000007 -0.000000 0.000000 -8.662767 2.929544 -4.272294 1.688849 -3.539356 3.714212 -11.964906 -4.902006 4.609546 15.222764 4.303244 -5.115387 -0.033266 -0.000000 0.000152 -0.000003 0.000000 -0.000000 -0.974922 -0.005862 0.026408 -0.814888 -0.017271 -0.004565 2.662656 0.020001 -0.001370 -0.385066 -0.002073 -0.000652 -0.000003 0.000027 0.000003 -1.211468 -0.747452 0.431007 -1.078731 0.763822 -0.437008 -13.549524 1.150074 -0.967392 11.523356 -2.253440 -1.018072 -4.150431 1.155963 2.282243 -0.165001 -0.000024 -0.000020 -0.000012 -0.000000 -0.000000 -0.232736 -0.002507 0.000617 0.326393 0.000670 0.003510 -0.091411 -0.001413 -0.002965 0.000090 -0.002829 0.002055 -0.031536 0.007806 -0.006953 0.000057 -0.000001 0.000001 0.611303 -0.006314 0.002881 0.000072 -0.000008 0.000031 -0.000039 0.000012 -0.000008 -0.000007 0.000009 -0.000004 0.000002 -0.000004 0.000023 0.000001 0.000000 -0.000000 -0.000049 -0.000006 0.000025 0.000049 0.000001 -0.000004 0.000001 0.000001 -0.000000 0.000081 -0.000010 0.000055 -0.000058 -0.000006 -0.000074 -0.000011 -0.000005 0.000002 -1.122407 0.551071 -0.618588 -3.378925 -0.580039 0.563716 -19.602387 -0.690977 0.378792 68.216364 4.898502 -1.173094 2.849577 -4.911304 0.616097 -2.158337 0.000187 0.000186 0.000021 -0.000000 0.000000 -4.579152 0.014621 0.007018 -0.000001 -0.000000 0.000000 0.000003 0.000000 -0.000002 -1.846349 0.137892 -2.331538 -0.303691 -0.097301 -0.005203 -0.294917 -0.102159 -0.010376 -0.306863 -0.095945 -0.006893 -0.000000 0.000001 -0.000005 0.000000 -0.000009 -0.000003 -1.297652 -0.476567 2.398434 -0.298059 0.103891 0.019499 -0.297055 0.106740 0.019260 -0.300394 0.104585 0.023259 
0.000000 0.000000 0.000000 0.000007 -0.000000 -0.000000 -3.144970 -0.001130 -0.000123 6.208945 0.000040 -0.000406 -20.332712 -0.046322 -2.117226 0.031067 -1.443998 2.405492 7.082654 -1.123385 1.241478 7.293512 -1.155371 1.279185 -1.014443 0.161309 0.137707 -0.000019 0.000002 0.000003 4.686509 0.000041 -0.000298 -2.481432 -0.000031 0.000159 4.011731 0.000036 -0.000260 4.672831 0.003705 0.000488 3.280025 0.001276 0.005485 -3.688181 -0.028704 -0.026050 -8.565554 -0.005246 -0.132839 -5.088178 -0.102091 -0.040065 -0.692471 -0.148257 0.062558 -2.739221 -0.099292 0.086834 -0.000007 -0.000000 0.000000 -19.911364 3.931360 -7.123994 2.792812 -5.794642 6.228504 -19.589799 -8.561385 7.038754 27.157416 6.801176 -9.302173 -0.129549 0.000010 0.000174 -0.000002 0.000000 -0.000000 -2.761917 -0.017909 0.067980 -1.549546 -0.039190 -0.016006 5.638572 0.048704 -0.001458 -0.752720 -0.007625 -0.002032 -0.000004 0.000027 0.000003 -2.353663 -1.687251 0.776868 -2.005956 1.729859 -0.772423 -25.746774 2.112802 -1.249513 16.557536 -3.317073 -1.398502 -2.911371 1.479277 3.274905 -0.368625 -0.000066 0.000018 -0.000001 -0.000000 0.000000 -0.698474 -0.003982 0.001641 0.985823 -0.006980 0.006504 -0.523279 0.002790 -0.012235 0.021047 -0.014087 0.010416 -0.094623 0.025634 -0.018133 0.000055 -0.000002 -0.000001 2.171189 -0.027132 0.003182 0.000068 -0.000004 0.000007 -0.000049 0.000009 -0.000011 -0.000020 0.000016 -0.000001 0.000021 -0.000004 0.000022 -0.000001 0.000000 0.000000 -0.000047 -0.000005 0.000025 0.000046 0.000001 -0.000004 0.000006 0.000000 -0.000000 0.000077 0.000002 0.000064 -0.000062 -0.000011 -0.000074 -0.000010 -0.000010 0.000001 -1.922750 0.844294 -1.753056 -6.796821 -1.026700 1.584724 -18.826583 -1.513404 0.910766 87.317917 7.304671 -2.503636 34.273039 -6.251572 5.305358 -4.375613 0.000381 0.000389 0.000005 0.000000 0.000000 -9.220007 0.028820 0.015299 -0.000001 -0.000000 0.000000 0.000001 0.000000 -0.000002 -3.953484 0.251928 -4.928524 -1.099505 -0.345468 -0.018921 -1.088452 -0.354008 -0.019336 -1.107092 -0.345918 -0.024310 -0.000000 0.000002 -0.000008 -0.000001 -0.000003 -0.000001 -2.819549 -0.929080 5.046351 -1.087005 0.375893 0.072360 -1.080095 0.383048 0.075130 -1.088694 0.375550 0.080193 
0.000000 0.000000 0.000000 0.000007 -0.000000 -0.000000 -5.166414 -0.001085 -0.000066 9.238738 0.000047 -0.000603 -30.684082 0.109470 -4.155148 0.054968 -2.745199 4.559713 13.456924 -1.993603 2.465805 8.231864 -1.289812 1.454992 -2.048455 0.323134 0.280932 -0.000014 0.000001 0.000001 9.306489 -0.027721 -0.003918 -6.525766 -0.000097 0.000417 4.532895 0.000039 -0.000295 5.477241 0.003750 0.000652 4.378457 0.001739 0.007273 -2.272056 -0.021626 -0.019197 -6.950880 0.004917 -0.112394 -6.585385 -0.119165 -0.058858 -4.072510 -0.207784 0.080025 -5.291421 -0.113742 0.094266 -0.000007 -0.000000 0.000000 -32.744101 3.203295 -8.656230 3.236665 -6.689279 7.261536 -22.622912 -10.112108 7.876293 34.655956 8.182816 -11.332408 -0.277573 0.000024 0.000194 -0.000023 0.000000 0.000000 -5.208795 -0.033315 0.130470 -1.958980 -0.066922 -0.027137 8.598625 0.081488 -0.005402 -1.078408 -0.013316 -0.003450 -0.000003 0.000027 0.000003 -3.553484 -2.941660 1.106759 -2.650962 3.032731 -1.075185 -34.227553 2.578565 -0.706464 16.171757 -3.234019 -1.370879 0.590631 0.982080 2.754487 -0.568698 -0.000065 -0.000057 -0.000009 -0.000000 -0.000000 -1.229222 -0.005185 0.002767 1.914836 -0.017033 0.014385 -1.299622 0.003665 -0.022559 0.111935 -0.028735 0.026181 -0.108736 0.060298 -0.041979 0.000069 -0.000006 -0.000005 4.226409 -0.057065 0.013299 0.000088 0.000013 -0.000022 -0.000039 -0.000016 -0.000015 0.000012 -0.000006 0.000002 -0.000009 -0.000004 0.000023 -0.000000 -0.000000 0.000000 -0.000044 -0.000005 0.000025 0.000056 0.000003 -0.000007 -0.000016 0.000000 0.000001 0.000088 -0.000005 0.000059 -0.000059 0.000007 -0.000070 0.000006 0.000001 0.000001 -2.566349 1.169642 -3.468789 -10.094897 -1.714001 3.101306 -10.828840 -2.651667 1.541075 100.207106 9.000314 -3.769717 44.114761 -7.027795 8.609021 -6.623591 0.000562 0.000605 -0.000006 -0.000000 0.000000 -13.890136 0.042385 0.024764 -0.000001 0.000004 -0.000014 0.000000 -0.000001 0.000002 -6.154802 0.354175 -7.634987 -2.222719 -0.688805 -0.046660 -2.201293 -0.708963 -0.048283 -2.226441 -0.692654 -0.051710 -0.000000 -0.000010 -0.000016 0.000002 -0.000002 -0.000001 -4.428912 -1.358442 7.795469 -2.196375 0.745942 0.153331 -2.186402 0.757194 0.153182 -2.200560 0.744933 0.161337 
